<?xml version="1.0" encoding="UTF-8" standalone="no"?>
<svg
   xmlns:dc="http://purl.org/dc/elements/1.1/"
   xmlns:cc="http://creativecommons.org/ns#"
   xmlns:rdf="http://www.w3.org/1999/02/22-rdf-syntax-ns#"
   xmlns:svg="http://www.w3.org/2000/svg"
   xmlns="http://www.w3.org/2000/svg"
   xmlns:sodipodi="http://sodipodi.sourceforge.net/DTD/sodipodi-0.dtd"
   xmlns:inkscape="http://www.inkscape.org/namespaces/inkscape"
   version="1.1"
   id="Layer_1"
   x="0px"
   y="0px"
   viewBox="0 0 511.99814 127.487"
   xml:space="preserve"
   sodipodi:docname="img.01.svg"
   width="511.99814"
   height="127.487"
   inkscape:version="1.0.2 (e86c870879, 2021-01-15)"><metadata
   id="metadata610"><rdf:RDF><cc:Work
       rdf:about=""><dc:format>image/svg+xml</dc:format><dc:type
         rdf:resource="http://purl.org/dc/dcmitype/StillImage" /><dc:title></dc:title></cc:Work></rdf:RDF></metadata><defs
   id="defs608" /><sodipodi:namedview
   pagecolor="#ffffff"
   bordercolor="#666666"
   borderopacity="1"
   objecttolerance="10"
   gridtolerance="10"
   guidetolerance="10"
   inkscape:pageopacity="0"
   inkscape:pageshadow="2"
   inkscape:window-width="1920"
   inkscape:window-height="1016"
   id="namedview606"
   showgrid="false"
   fit-margin-top="0"
   fit-margin-left="0"
   fit-margin-right="0"
   fit-margin-bottom="0"
   inkscape:zoom="1"
   inkscape:cx="230.94907"
   inkscape:cy="9.0066257"
   inkscape:window-x="0"
   inkscape:window-y="27"
   inkscape:window-maximized="1"
   inkscape:current-layer="Layer_1" />
<style
   type="text/css"
   id="style329">
	.st0{fill:#E8EAEE;}
	.st1{fill:none;stroke:#D9DDE3;stroke-width:1.9946;stroke-miterlimit:10;}
	.st2{fill:#F6F8FA;}
	.st3{fill:#F0F1F2;}
	.st4{fill:#959DA5;}
	.st5{fill:none;stroke:#6A737D;stroke-width:0.7495;stroke-miterlimit:10;}
	.st6{fill:#E1E4E8;}
	.st7{fill:#D1D5DA;stroke:#FAFBFC;stroke-width:0.9993;stroke-miterlimit:10;}
	.st8{fill:#D1D5DA;}
	.st9{fill:#79B8FF;}
	.st10{fill:#2188FF;}
	.st11{fill:#C8E1FF;}
	.st12{fill:#6A737D;}
	.st13{fill:#0366D6;}
	.st14{fill:#FFD1AC;}
	.st15{fill:#FFAB70;}
	.st16{fill:#FFEBDA;}
	.st17{fill:#FFF5B1;}
	.st18{fill:#FB8532;}
	.st19{fill:none;stroke:#0366D6;stroke-width:2;stroke-miterlimit:10;}
	.st20{fill:none;stroke:#0366D6;stroke-width:2;stroke-linecap:round;stroke-miterlimit:10;}
	.st21{fill:#FFDF5D;}
	.st22{fill:#F9C513;}
</style>















































































































<g
   id="g749"
   transform="matrix(0.6038426,0,0,0.6038426,-30.856356,-105.17355)"><ellipse
     class="st0"
     cx="530.79999"
     cy="376.29999"
     rx="67"
     ry="9"
     id="ellipse331" /><line
     class="st1"
     x1="899"
     y1="360.20001"
     x2="51.099998"
     y2="360.20001"
     id="line333" /><rect
     x="559.09998"
     y="312.89999"
     class="st2"
     width="303.5"
     height="53.599998"
     id="rect335" /><path
     class="st3"
     d="m 561.3,313.5 c 10.9,6.3 23.9,9.3 36.7,8.5 12.8,-0.8 25.3,-5.2 38.1,-4.1 9.8,0.9 19,5.1 28.4,7.8 11.2,3.2 23.1,4.4 34.8,3.4 20.2,-1.7 40.5,-9.6 60.1,-4.8 7.2,1.7 13.9,5.1 20.7,7.6 24.2,8.8 42.8,6.5 65,-6 6.3,-3.6 12.3,-8.1 15.8,-14.2"
     id="path337" /><polygon
     class="st2"
     points="868.9,299.3 839.6,288.8 584.7,288.8 552.1,299.3 "
     id="polygon339" /><polygon
     class="st4"
     points="702.3,295.6 707.3,290.3 601.7,290.3 585.9,295.6 "
     id="polygon341" /><path
     class="st0"
     d="m 585.9,295.6 15.9,-5.3 h -12.2 l -16.2,5 c 0,0 12.7,0.6 12.5,0.3 z"
     id="path343" /><line
     class="st5"
     x1="609.59998"
     y1="291"
     x2="599.40002"
     y2="294.89999"
     id="line345" /><line
     class="st5"
     x1="625.09998"
     y1="291"
     x2="614.90002"
     y2="294.89999"
     id="line347" /><line
     class="st5"
     x1="640.59998"
     y1="291"
     x2="630.40002"
     y2="294.89999"
     id="line349" /><line
     class="st5"
     x1="656.09998"
     y1="291"
     x2="645.79999"
     y2="294.89999"
     id="line351" /><line
     class="st5"
     x1="671.59998"
     y1="291"
     x2="661.29999"
     y2="294.89999"
     id="line353" /><line
     class="st5"
     x1="687.09998"
     y1="291"
     x2="676.79999"
     y2="294.89999"
     id="line355" /><line
     class="st5"
     x1="702.59998"
     y1="291"
     x2="692.29999"
     y2="294.89999"
     id="line357" /><polygon
     class="st6"
     points="552.7,299.3 552.7,314.3 868.3,313.7 869,299.6 "
     id="polygon359" /><polygon
     class="st7"
     points="720.6,290.6 718.5,293.5 692.6,293 692.8,290.3 "
     id="polygon361" /><rect
     x="612.79999"
     y="273.70001"
     class="st6"
     width="11.6"
     height="17.700001"
     id="rect363" /><path
     class="st8"
     d="m 621.4,274.3 c -0.8,3 -5.1,11.4 -5.1,11.4 l 7.8,-0.1 0.4,-11.9 z"
     id="path365" /><polygon
     class="st0"
     points="621.9,284.6 621.9,293.2 591,293.2 591,285.2 "
     id="polygon367" /><polygon
     class="st8"
     points="621.9,284.6 621.9,293.2 631.4,291.2 630.9,283.6 "
     id="polygon369" /><polygon
     class="st2"
     points="621.9,284.6 591,285.2 606.5,283.4 630.9,283.6 "
     id="polygon371" /><rect
     x="593.79999"
     y="286.5"
     class="st2"
     width="16.299999"
     height="5"
     id="rect373" /><rect
     x="612.5"
     y="286.5"
     class="st2"
     width="5.0999999"
     height="5"
     id="rect375" /><polygon
     class="st0"
     points="659.1,250 660.3,293.1 630,292.2 629.7,250 "
     id="polygon377" /><polygon
     class="st6"
     points="665.5,247 665.5,290.6 659.8,293.4 658.7,249.7 "
     id="polygon379" /><polygon
     class="st0"
     points="664.5,251.3 664.5,255.9 661.1,257.6 661.1,252.9 "
     id="polygon381" /><polygon
     class="st0"
     points="664.4,259.6 664.4,288.1 661.2,289.7 661.2,261.2 "
     id="polygon383" /><polygon
     class="st2"
     points="638.1,247.8 665.5,247 658.5,250.2 629.7,250 "
     id="polygon385" /><rect
     x="631.90002"
     y="252.60001"
     class="st2"
     width="25.799999"
     height="4.8000002"
     id="rect387" /><path
     class="st2"
     d="m 648.3,265.4 c -3.5,-1.6 -11.4,0.5 -11.4,6.1 0,5.6 3.8,9.9 8.7,8.8 4.8,-1 7.3,-5 7.1,-7.6 -1,1 -1.9,1 -2.6,0.3 -0.7,-0.7 0.2,-2.8 0.2,-2.8 0,0 -1.9,1.2 -2.4,-0.2 -0.5,-1.4 0.5,-2.8 0.5,-2.8 0,0 -2.1,0.5 -2.1,-0.3 0,-0.8 2,-1.5 2,-1.5 z"
     id="path389" /><path
     class="st6"
     d="m 645.2,278.9 c -4.6,1 -7.2,-4.3 -8.1,-8.6 -0.1,0.4 -0.2,0.8 -0.2,1.2 0,5.5 3.8,9.9 8.7,8.8 3.9,-0.8 6.3,-3.6 6.9,-6 -1.1,1.3 -3.6,3.8 -7.3,4.6 z"
     id="path391" /><ellipse
     class="st0"
     cx="646.79999"
     cy="273.79999"
     rx="0.40000001"
     ry="0.5"
     id="ellipse393" /><ellipse
     class="st0"
     cx="642"
     cy="267.89999"
     rx="0.5"
     ry="0.60000002"
     id="ellipse395" /><circle
     class="st0"
     cx="642.09998"
     cy="275.79999"
     id="ellipse397"
     r="0.40000001" /><circle
     class="st0"
     cx="643.29999"
     cy="271.79999"
     r="0.5"
     id="circle399" /><path
     class="st6"
     d="m 660.3,293.1 c -0.5,-0.5 -0.8,-1.1 -1.1,-1.7 -0.5,-1.2 -0.9,-2.5 -1.6,-3.6 -1.9,-3.1 -6.3,-3.8 -9.7,-2.4 -1.5,0.6 -2.9,1.6 -4.6,1.8 -1.9,0.2 -3.8,-0.7 -4.8,-2.3 -0.9,-1.5 -1,-3.3 -1.8,-4.9 -1.2,-2.6 -4.2,-3.9 -7,-3.7 l 0.3,15.9 z"
     id="path401" /><ellipse
     transform="matrix(0.07447392,-0.9972,0.9972,0.07447392,299.5396,870.5492)"
     class="st0"
     cx="618.79999"
     cy="273.89999"
     rx="1.4"
     ry="5.9000001"
     id="ellipse403" /><g
     id="g431">
	<polygon
   class="st9"
   points="695.6,245.8 708,271.4 656.6,271.4 642.3,245.8 "
   id="polygon405" />
	<polygon
   class="st9"
   points="702.9,280.7 702.9,298.3 648.7,297.2 648.7,279.6 "
   id="polygon407" />
	<polygon
   class="st10"
   points="702.8,280.7 702.8,298.3 707.7,293.2 707.8,276.7 "
   id="polygon409" />
	<polygon
   class="st11"
   points="702.9,280.7 648.7,279.6 663.5,276.3 707.9,276.7 "
   id="polygon411" />
	<polygon
   class="st10"
   points="695.6,245.8 708,271.4 709.8,268.2 696.8,242.4 "
   id="polygon413" />
	<polygon
   class="st11"
   points="695.6,245.8 696.8,242.4 645.1,242.4 642.3,245.8 "
   id="polygon415" />
	<polygon
   class="st10"
   points="683.6,259.7 685.1,262.5 669.7,262.5 668.1,259.7 "
   id="polygon417" />
	<rect
   x="670.90002"
   y="260.29999"
   class="st4"
   width="10.9"
   height="19.200001"
   id="rect419" />
	<polygon
   class="st12"
   points="681.7,279.5 681.7,260.3 683.2,262.3 683.2,278.8 "
   id="polygon421" />
	<path
   class="st10"
   d="M 702.9,298.3 V 286 c -2,-0.5 -4.3,0.4 -6.1,1.7 -2.2,1.6 -4.1,3.7 -6.6,4.6 -1.8,0.6 -3.7,0.6 -5.6,0.4 -4.3,-0.4 -8.6,-1.5 -12.9,-1.8 -4.3,-0.3 -8.9,0.2 -12.5,2.7 -1.6,1.1 -3.1,2.7 -4.7,3.7 z"
   id="path423" />
	<path
   class="st13"
   d="m 707.7,288.6 c -0.6,0.4 -1.3,0.7 -1.9,0.8 -1.4,0.2 -2.2,-2.9 -3.1,-3.4 v 12.4 l 4.9,-5.1 z"
   id="path425" />
	<polygon
   class="st12"
   points="695.5,264.7 697.3,268.1 695.8,268.1 694.1,264.7 "
   id="polygon427" />
	<polygon
   class="st12"
   points="698.7,264.7 700.5,268.1 699.1,268.1 697.3,264.7 "
   id="polygon429" />
</g><g
     id="g457">
	<rect
   x="703.79999"
   y="285.60001"
   class="st14"
   width="22.700001"
   height="12.1"
   id="rect433" />
	<polygon
   class="st15"
   points="728.9,284.6 728.9,295.3 726.2,297.7 726.2,285.6 "
   id="polygon435" />
	<polygon
   class="st16"
   points="708.8,284.6 728.9,284.6 726.2,285.6 703.8,285.6 "
   id="polygon437" />
	<rect
   x="710"
   y="284.89999"
   class="st15"
   width="13.5"
   height="0.30000001"
   id="rect439" />
	<path
   class="st17"
   d="m 711,284.9 c 1.9,-5.3 -3.6,-12.3 -6,-12.6 h 15.3 c 4.6,3.2 2.3,12.6 2.3,12.6 0,0 -11.7,0.4 -11.6,0 z"
   id="path441" />
	<polygon
   class="st14"
   points="719.4,274.1 720.1,274.6 710.6,274.6 709.9,274.1 "
   id="polygon443" />
	<polygon
   class="st14"
   points="720.2,276.1 720.6,276.8 711.9,276.8 711.3,276.1 "
   id="polygon445" />
	<polygon
   class="st14"
   points="716.4,278.3 716.6,279 712.9,279 712.6,278.3 "
   id="polygon447" />
	<polygon
   class="st14"
   points="716.3,280.7 716.4,281.5 713.3,281.5 713.3,280.7 "
   id="polygon449" />
	<polygon
   class="st14"
   points="717.6,282.8 717.6,283.5 713.2,283.5 713.2,282.8 "
   id="polygon451" />
	<path
   class="st18"
   d="m 728.8,289.2 c -0.3,0.4 -0.3,1.1 -0.5,1.6 -0.2,0.5 -0.8,1 -1.3,0.7 -0.2,-0.1 -0.3,-0.4 -0.4,-0.6 -0.1,-0.1 -0.2,-0.3 -0.3,-0.4 v 7.2 l 2.6,-2.3 -0.1,-6.2 c 0,-0.1 0,0 0,0 z"
   id="path453" />
	<path
   class="st15"
   d="m 726.5,290.8 c -0.6,-0.8 -1.9,-0.8 -2.8,-0.2 -0.9,0.6 -1.5,1.5 -2.2,2.3 -1.7,2 -4.3,3.2 -7,3.2 -2.6,0 -5.2,-1 -7.8,-0.6 -0.5,0.1 -1.8,0.5 -2.8,1.1 v 1.1 h 22.7 v -6.9 z"
   id="path455" />
</g><path
     class="st19"
     d="m 804.6,254.3 c 12.7,-5.3 20.7,-20.9 22.4,-31.2 1.5,-9.1 0.7,-15.5 -0.9,-20.1 0.8,-5.6 -3.5,-17.9 -9.5,-18.9 -8.3,0 -14.8,6.5 -16.7,9.2"
     id="path459" /><path
     class="st19"
     d="m 809.9,190.3 c 1.9,-2.4 5,-1.5 6.3,-1 1.3,0.5 3.4,7.6 0.7,19"
     id="path461" /><path
     class="st19"
     d="m 812.9,184 c -7,-8.3 -25.2,-9.7 -33.9,-8.4 -8.6,1.4 -28.1,8.9 -31.6,22.7 -3.5,13.8 1.1,28.4 3.8,32.9 -4.9,4.9 -1.6,13.8 3.2,18.9 4.9,5.1 22.5,10 30.6,9.9 7.1,-0.1 10.7,-1.8 10.7,-1.8"
     id="path463" /><path
     class="st19"
     d="m 757.6,238.6 c -0.3,1.9 5.2,5.1 6.2,2.3 1,-2.8 -5.2,-5.1 -6.2,-2.3 z"
     id="path465" /><path
     class="st19"
     d="m 746.6,201.3 c 2.2,3.5 6.5,7.8 12.4,7.8 5.9,0 16.2,-4.9 23.2,-3.5 7,1.4 15.1,6.8 15.7,17.8 0.5,10.5 -4.5,13.9 -7.9,19.1 -0.3,0.5 1.1,1.7 1.4,2.2 3,5 1.3,6.1 0.2,9.1 -1.1,3.2 -8.1,6.8 -13.5,5.4"
     id="path467" /><path
     class="st19"
     d="m 806,244.2 c 5.7,-3.5 17.6,-2.2 19.7,-0.5"
     id="path469" /><path
     class="st19"
     d="m 806,246.9 c 4.3,-0.3 10.3,4.1 12.4,7.6"
     id="path471" /><path
     class="st19"
     d="m 749.9,233.1 c -3.2,-3.8 -7.6,-5.1 -11.1,-4.6"
     id="path473" /><path
     class="st19"
     d="m 748.2,236.4 c -3.5,-1.9 -4.6,-2.4 -7,-1.9"
     id="path475" /><path
     class="st20"
     d="m 749.9,233.1 c -3.2,-3.8 -7.6,-5.1 -11.1,-4.6"
     id="path477" /><path
     class="st20"
     d="m 748.2,236.4 c -3.5,-1.9 -4.6,-2.4 -7,-1.9"
     id="path479" /><path
     class="st19"
     d="m 798.4,262.9 c 4.3,4.5 7.8,12.9 9.3,18"
     id="path481" /><path
     class="st19"
     d="m 811.7,281.5 c -10.3,1.4 -19.4,-4.9 -34.3,-4.1 -11.3,0.6 -22.7,8.1 -21.6,13.2 -1.9,-0.8 -5.4,0 -4.3,2.7 1.1,2.7 14.9,2.7 28.6,2.7 13.7,0 40.2,-2.4 42.6,-6.2 2.4,-3.8 -4.9,-18.7 -9.2,-25.1 -4.7,-7 -13.9,-16.7 -17.7,-12.7 -2.7,2.7 0.7,5.6 0.4,8.3"
     id="path483" /><path
     class="st19"
     d="m 799.2,263.6 c 1,4.8 0.9,6.8 1.7,16.5"
     id="path485" /><path
     class="st19"
     d="m 788.7,264.9 c 0,4.8 -2.2,12.3 -2.2,12.3"
     id="path487" /><path
     class="st19"
     d="m 783.2,260.4 c -0.5,5.2 -8.9,15.6 -11.8,18"
     id="path489" /><path
     class="st19"
     d="m 777.1,259.1 c -5.7,3.8 -24,5.4 -28.6,-5.2 -4.6,-10.5 -3.5,-26.5 -8.9,-34.6 -5.4,-8.1 -22,-12 -30.6,-2.5 -8.6,9.5 -2.9,19.6 -2.9,22.1 0,2.4 -4.6,6.2 -2.2,8.9 2.4,2.7 6,-3.7 11.2,-7.2 5.2,-3.5 15.8,-7.2 20.7,-4"
     id="path491" /><path
     class="st19"
     d="m 733.4,235.3 c 2.2,3.2 3,7 0.3,8.1 -2.7,1.1 -6.2,-4.9 -6.5,-7.8"
     id="path493" /><path
     class="st19"
     d="m 735,251.2 c 2.6,-1.7 10.5,11.6 7.7,15 -2.7,3.4 -12.9,-11.6 -7.7,-15 z"
     id="path495" /><path
     class="st19"
     d="m 719.1,237.7 c 3,1.6 4.7,8.6 7.6,15.1 3.3,7.4 5.9,19.4 22.4,20.8 16.5,1.4 30.7,-7 34,-11.4"
     id="path497" /><path
     class="st19"
     d="m 760.9,273.1 c -3.2,-2.4 -14.3,-5.7 -11.9,0.5"
     id="path499" /><path
     class="st19"
     d="m 769.9,177.8 c -7.3,-1.4 -21.3,0.8 -23.2,3.5 -1.9,2.7 1.9,9.2 2.7,10.8"
     id="path501" /><path
     class="st19"
     d="m 750.4,183.2 c 2.4,0 5.9,2.4 5.9,2.4"
     id="path503" /><path
     class="st20"
     d="m 819.9,242.2 c 2.8,0.3 5,0.9 5.8,1.5"
     id="path505" /><path
     class="st20"
     d="m 814.9,250.6 c 1.5,1.2 2.8,2.6 3.6,3.9"
     id="path507" /><path
     class="st21"
     d="m 620.4,215.2 c -4.1,-4.8 -10.4,-9.1 -10.4,-9.1 l 6.3,-11.9 c 0,0 9.2,6 9.2,16.9"
     id="path509" /><ellipse
     transform="matrix(0.9832,-0.1825,0.1825,0.9832,-27.9371,117.0104)"
     class="st15"
     cx="621.79999"
     cy="210.3"
     rx="2.9000001"
     ry="2.7"
     id="ellipse511" /><path
     class="st21"
     d="m 626.7,210.6 c 0.8,-5.4 1.3,-16.1 -0.2,-18.5 l 13.7,-0.8 c 0,0 -0.5,11.3 -6.2,19.9 z"
     id="path513" /><ellipse
     transform="matrix(0.3004,-0.9538,0.9538,0.3004,243.5412,747.7424)"
     class="st15"
     cx="631.5"
     cy="207.89999"
     rx="4.0999999"
     ry="2.3"
     id="ellipse515" /><path
     class="st19"
     d="m 499.4,208.5 c -1,-0.7 -2,-1.5 -3.5,-1 -1.5,0.5 -7,8.7 -3.7,19.2"
     id="path517" /><path
     class="st19"
     d="m 562.1,207.6 c -2,-2.7 -6,-4.1 -7.8,-2.8 -1.7,1.2 -3.7,8.5 -12,14 -8.2,5.5 -22.2,2.5 -27.5,5 -5.2,2.5 -9,9 -6.2,22.2 2.8,13.2 11.5,13.5 12.7,16 1.2,2.5 -1.5,6.2 -1,9 0.5,2.7 5.7,8 11.2,7.7"
     id="path519" /><path
     class="st19"
     d="m 554.7,250.5 c 1.3,1.4 7.4,-1.5 6.5,-3.9 -0.9,-2.4 -7.9,1 -6.5,3.9 z"
     id="path521" /><path
     class="st19"
     d="m 571.3,237 c 1.2,-4.5 4,-8.5 7.2,-9.2"
     id="path523" /><path
     class="st19"
     d="m 573.5,240.8 c 2.2,-3.2 7.2,-3.5 8.5,-3.2"
     id="path525" /><path
     class="st20"
     d="m 571.2,236.8 c 1.2,-4.5 4.1,-8.2 7.3,-9"
     id="path527" /><path
     class="st20"
     d="m 573.5,240.8 c 2.2,-3.2 7.2,-3.5 8.5,-3.2"
     id="path529" /><path
     class="st19"
     d="m 539.3,192.8 c 3.2,-3 14.5,-7.7 18.5,-5.5 4,2.2 3.7,14.7 2.2,18.7"
     id="path531" /><path
     class="st19"
     d="m 550.8,198.5 c 1,-4.2 3.7,-7.5 5,-7.7"
     id="path533" /><path
     class="st20"
     d="m 503.3,266.8 c -4,0.7 -7.1,2.3 -8.7,3.5"
     id="path535" /><path
     class="st20"
     d="m 506.2,271.4 c -2.3,1.2 -4.4,3.2 -5.3,5.4"
     id="path537" /><path
     class="st19"
     d="m 612.4,247.3 c -6.3,6 -33.3,16.3 -50,19.3"
     id="path539" /><path
     class="st19"
     d="m 631.3,246.8 c -6.7,0.2 -18,-0.7 -20,-15.5 -2,-14.7 12,-20 18,-20.5 6,-0.5 15,-1 18.2,13 3.2,14 -0.1,23.1 -6.5,30.1 -7.1,7.9 -32.5,20.8 -82.6,19.7"
     id="path541" /><path
     class="st19"
     d="m 612,234.8 c -2.7,2.7 -3.7,8.5 -1.5,11.2 1.5,2 6,2.7 10.2,-0.2"
     id="path543" /><path
     class="st19"
     d="m 627.4,246.8 c -4,4.2 -18.4,14 -21.6,9.9 -1.7,-2.2 11.3,-7.7 11.7,-9.3"
     id="path545" /><path
     class="st19"
     d="m 598.4,260.8 c 1.5,2.4 -6,5.9 -10.5,7.1 -4.7,1.2 -14.2,2 -14.3,0.3 -0.2,-1.5 7.5,-3.3 12.9,-4.9 4.7,-1.5 10.7,-4.3 11.9,-2.5 z"
     id="path547" /><path
     class="st19"
     d="m 555.8,271.5 c 3.7,4.5 18.7,8.7 27.7,10 9,1.2 13.2,11.1 11.2,15.7 -0.7,1.7 -4,2.7 -6,6 -2,3.2 -4.7,9.2 -6.2,17.2 -1.5,8 0,22.5 -5.2,22 -5.2,-0.5 -4.7,-2.5 -5,-4.5"
     id="path549" /><path
     class="st19"
     d="m 580.5,291.5 c -6,1.2 -23.2,10.5 -21.5,26.7 1.7,16.2 11.5,19.7 16,19.7"
     id="path551" /><path
     class="st19"
     d="m 572,295 c -4.5,-1.5 -14.6,-9.6 -16.6,-15.1"
     id="path553" /><path
     class="st19"
     d="m 553.1,276.6 c 3.7,4.2 9.5,17.2 9,27.9"
     id="path555" /><path
     class="st19"
     d="m 567.1,334.5 c 0,6.7 -0.7,12 -1.7,15"
     id="path557" /><path
     class="st19"
     d="m 558.6,347.7 c 4.2,0.7 21.5,5.5 22.5,18"
     id="path559" /><path
     class="st19"
     d="m 531.2,278.6 c -5.7,3 -19.4,9.3 -25.7,16.3 -5.7,6.3 -7.8,13 -3.2,20.5"
     id="path561" /><path
     class="st19"
     d="m 530.4,290.2 c 2.7,-4.7 5.6,-8.4 9.3,-10.7"
     id="path563" /><path
     class="st19"
     d="m 545.4,321.5 c -1.3,6.7 -2.7,14.8 -5.3,22.3 -5.7,16.3 -5.2,24.8 -4,28.3 1.2,3.5 13.8,4.9 22.3,5.7 8,0.7 18.4,0.1 23.6,-3.4 5.2,-3.5 6.7,-7.2 4,-8.7 -5.7,-3.2 -9.1,9.6 -16.6,11.8"
     id="path565" /><path
     class="st19"
     d="m 546.1,278.9 c 2,5 2.2,14.1 2,21"
     id="path567" /><path
     class="st19"
     d="m 545.2,322.5 c -2.7,7.7 -8.4,19 -14.1,28.3 -5.8,9.6 -14.4,22.4 -17.3,23.7 -9,3.7 -25.9,6 -34.3,5.3 -4.8,-0.4 -5.2,-5.1 -1.7,-6.3 3.5,-1.2 7.8,5.9 14.3,5.7"
     id="path569" /><path
     class="st19"
     d="M 481.6,372.9"
     id="path571" /><path
     class="st19"
     d="m 481.5,373.8 c 0,-5.7 3,-16.4 9,-21 4.3,-3.3 14.4,-6.2 19.1,-4.7"
     id="path573" /><path
     class="st19"
     d="m 509.6,340.4 c -1.7,3.5 -5,7 -5,7"
     id="path575" /><path
     class="st21"
     d="m 496.1,317.7 c 1.5,-4.5 19.5,-2.5 22,-2.5 2.5,0 10,0.5 12.5,2 2.5,1.5 -2.5,27 -2.5,27 0,0 -10,1 -12.5,0.5 -2.5,-0.5 -21,-3 -22.5,-6 -1.5,-3 3,-21 3,-21 z"
     id="path577" /><path
     class="st15"
     d="m 522.1,315.5 c -6.5,1.7 -12.7,15.7 -18.5,15.2 -3.5,-0.3 -7,-11.5 -7.5,-13 -0.5,-1.5 0,-4 3.7,-3.5 3.8,0.5 22.3,1.3 22.3,1.3 z"
     id="path579" /><path
     class="st22"
     d="m 492.8,336.5 c 6,6 21,5.8 25,4.3 4,-1.5 3.8,-23.7 3.8,-25.1 0,0 7,0 9,1.5 2,1.5 -0.5,24 -2.5,27 -2,3 -7.5,0.5 -12.5,0.5 -5,0 -22,-3.5 -22.5,-6 -0.5,-2.5 -0.3,-2.2 -0.3,-2.2 z"
     id="path581" /><path
     class="st19"
     d="M 558.1,273.2"
     id="path583" /><path
     class="st15"
     d="m 529.6,321.7 c 19.5,-19 24.5,-49.8 24.5,-49.8 l -3.5,1.2 c -5.5,18.5 -23,38.1 -28,44.6 l 7,4"
     id="path585" /><path
     class="st18"
     d="m 522.6,317.7 c 0,0 -1.2,9 1.3,10 2.5,1 5.7,-6 5.7,-6 z"
     id="path587" /><path
     class="st19"
     d="m 516.6,295 c 7,-4.2 18,-7.7 24.7,-2.7 6.7,5 11.8,16.7 7.4,25 -2.7,5 -6.7,7 -9.3,7"
     id="path589" /><path
     class="st19"
     d="m 522.4,315.2 c 6.7,-2.7 8.4,4.2 10.3,10.7 1.7,5.7 9.7,3 9.3,-1.7"
     id="path591" /><circle
     class="st15"
     cx="525"
     cy="325"
     r="1.1"
     id="circle593" /><ellipse
     transform="matrix(0.1631,-0.9866,0.9866,0.1631,98.1069,771.6032)"
     class="st18"
     cx="503.89999"
     cy="328"
     rx="1.6"
     ry="1.1"
     id="ellipse595" /><path
     class="st19"
     d="m 497.8,204 c 8.3,-8.7 21.2,-14.1 38,-12.3 8.7,0.9 18.9,8 24.6,14 8,8.3 8.9,29.4 8.9,29.4 0,0 2.4,1.8 4.2,5.7 1.7,3.7 5.1,10.9 -5.2,20.8 -7.7,7.5 -22.6,18 -42.3,17.3 -19.7,-0.7 -28.8,-7.8 -35.6,-19.7 -6.7,-11.6 -7.3,-25.6 -5.8,-34.3 -0.7,-6.8 2.5,-18.2 6.3,-22.2 0.4,-0.4 1.4,-0.6 2,-0.6 4.9,0.4 12.5,3.4 16.2,8.7"
     id="path597" /><path
     class="st19"
     d="m 510.6,266.7 c -7.2,-1.2 -13.5,1.7 -16,3.5"
     id="path599" /><path
     class="st19"
     d="m 511.1,270 c -3.7,0 -8.7,3 -10.2,6.7"
     id="path601" /><path
     class="st19"
     d="m 538.1,280.9 c 0.3,3 -0.7,9.3 -0.7,9.3"
     id="path603" /></g>
</svg>
