<svg xmlns="http://www.w3.org/2000/svg" version="1.1" id="Layer_1" x="0" y="0" xml:space="preserve" width="511.998" height="127.487"><style type="text/css" id="style329">.st0{fill:#e8eaee}.st2{fill:#f6f8fa}.st4{fill:#959da5}.st5{fill:none;stroke:#6a737d;stroke-width:.7495;stroke-miterlimit:10}.st6{fill:#e1e4e8}.st8{fill:#d1d5da}.st9{fill:#79b8ff}.st10{fill:#2188ff}.st11{fill:#c8e1ff}.st12{fill:#6a737d}.st14{fill:#ffd1ac}.st15{fill:#ffab70}.st18{fill:#fb8532}.st19,.st20{fill:none;stroke:#0366d6;stroke-width:2;stroke-miterlimit:10}.st20{stroke-linecap:round}.st21{fill:#ffdf5d}</style><g id="g749" transform="matrix(.60384 0 0 .60384 -30.856 -105.174)"><ellipse class="st0" cx="530.8" cy="376.3" rx="67" ry="9" id="ellipse331"/><path id="line333" style="fill:none;stroke:#d9dde3;stroke-width:1.9946;stroke-miterlimit:10" d="M899 360.2H51.1"/><path class="st2" id="rect335" d="M559.1 312.9h303.5v53.6H559.1z"/><path d="M561.3 313.5c10.9 6.3 23.9 9.3 36.7 8.5 12.8-.8 25.3-5.2 38.1-4.1 9.8.9 19 5.1 28.4 7.8 11.2 3.2 23.1 4.4 34.8 3.4 20.2-1.7 40.5-9.6 60.1-4.8 7.2 1.7 13.9 5.1 20.7 7.6 24.2 8.8 42.8 6.5 65-6 6.3-3.6 12.3-8.1 15.8-14.2" id="path337" style="fill:#f0f1f2"/><path class="st2" id="polygon339" d="m868.9 299.3-29.3-10.5H584.7l-32.6 10.5z"/><path class="st4" id="polygon341" d="m702.3 295.6 5-5.3H601.7l-15.8 5.3z"/><path class="st0" d="m585.9 295.6 15.9-5.3h-12.2l-16.2 5s12.7.6 12.5.3z" id="path343"/><path class="st5" id="line345" d="m609.6 291-10.2 3.9"/><path class="st5" id="line347" d="m625.1 291-10.2 3.9"/><path class="st5" id="line349" d="m640.6 291-10.2 3.9"/><path class="st5" id="line351" d="m656.1 291-10.3 3.9"/><path class="st5" id="line353" d="m671.6 291-10.3 3.9"/><path class="st5" id="line355" d="m687.1 291-10.3 3.9"/><path class="st5" id="line357" d="m702.6 291-10.3 3.9"/><path class="st6" id="polygon359" d="M552.7 299.3v15l315.6-.6.7-14.1z"/><path id="polygon361" style="fill:#d1d5da;stroke:#fafbfc;stroke-width:.9993;stroke-miterlimit:10" d="m720.6 290.6-2.1 2.9-25.9-.5.2-2.7z"/><path class="st6" id="rect363" d="M612.8 273.7h11.6v17.7h-11.6z"/><path class="st8" d="M621.4 274.3c-.8 3-5.1 11.4-5.1 11.4l7.8-.1.4-11.9z" id="path365"/><path class="st0" id="polygon367" d="M621.9 284.6v8.6H591v-8z"/><path class="st8" id="polygon369" d="M621.9 284.6v8.6l9.5-2-.5-7.6z"/><path class="st2" id="polygon371" d="m621.9 284.6-30.9.6 15.5-1.8 24.4.2z"/><path class="st2" id="rect373" d="M593.8 286.5h16.3v5h-16.3z"/><path class="st2" id="rect375" d="M612.5 286.5h5.1v5h-5.1z"/><path class="st0" id="polygon377" d="m659.1 250 1.2 43.1-30.3-.9-.3-42.2z"/><path class="st6" id="polygon379" d="M665.5 247v43.6l-5.7 2.8-1.1-43.7z"/><path class="st0" id="polygon381" d="M664.5 251.3v4.6l-3.4 1.7v-4.7z"/><path class="st0" id="polygon383" d="M664.4 259.6v28.5l-3.2 1.6v-28.5z"/><path class="st2" id="polygon385" d="m638.1 247.8 27.4-.8-7 3.2-28.8-.2z"/><path class="st2" id="rect387" d="M631.9 252.6h25.8v4.8h-25.8z"/><path class="st2" d="M648.3 265.4c-3.5-1.6-11.4.5-11.4 6.1s3.8 9.9 8.7 8.8c4.8-1 7.3-5 7.1-7.6-1 1-1.9 1-2.6.3-.7-.7.2-2.8.2-2.8s-1.9 1.2-2.4-.2.5-2.8.5-2.8-2.1.5-2.1-.3 2-1.5 2-1.5z" id="path389"/><path class="st6" d="M645.2 278.9c-4.6 1-7.2-4.3-8.1-8.6-.1.4-.2.8-.2 1.2 0 5.5 3.8 9.9 8.7 8.8 3.9-.8 6.3-3.6 6.9-6-1.1 1.3-3.6 3.8-7.3 4.6z" id="path391"/><ellipse class="st0" cx="646.8" cy="273.8" rx=".4" ry=".5" id="ellipse393"/><ellipse class="st0" cx="642" cy="267.9" rx=".5" ry=".6" id="ellipse395"/><circle class="st0" cx="642.1" cy="275.8" id="ellipse397" r=".4"/><circle class="st0" cx="643.3" cy="271.8" r=".5" id="circle399"/><path class="st6" d="M660.3 293.1c-.5-.5-.8-1.1-1.1-1.7-.5-1.2-.9-2.5-1.6-3.6-1.9-3.1-6.3-3.8-9.7-2.4-1.5.6-2.9 1.6-4.6 1.8-1.9.2-3.8-.7-4.8-2.3-.9-1.5-1-3.3-1.8-4.9-1.2-2.6-4.2-3.9-7-3.7l.3 15.9z" id="path401"/><ellipse transform="matrix(.07447 -.9972 .9972 .07447 299.54 870.55)" class="st0" cx="618.8" cy="273.9" rx="1.4" ry="5.9" id="ellipse403"/><g id="g431"><path class="st9" id="polygon405" d="m695.6 245.8 12.4 25.6h-51.4l-14.3-25.6z"/><path class="st9" id="polygon407" d="M702.9 280.7v17.6l-54.2-1.1v-17.6z"/><path class="st10" id="polygon409" d="M702.8 280.7v17.6l4.9-5.1.1-16.5z"/><path class="st11" id="polygon411" d="m702.9 280.7-54.2-1.1 14.8-3.3 44.4.4z"/><path class="st10" id="polygon413" d="m695.6 245.8 12.4 25.6 1.8-3.2-13-25.8z"/><path class="st11" id="polygon415" d="m695.6 245.8 1.2-3.4h-51.7l-2.8 3.4z"/><path class="st10" id="polygon417" d="m683.6 259.7 1.5 2.8h-15.4l-1.6-2.8z"/><path class="st4" id="rect419" d="M670.9 260.3h10.9v19.2h-10.9z"/><path class="st12" id="polygon421" d="M681.7 279.5v-19.2l1.5 2v16.5z"/><path class="st10" d="M702.9 298.3V286c-2-.5-4.3.4-6.1 1.7-2.2 1.6-4.1 3.7-6.6 4.6-1.8.6-3.7.6-5.6.4-4.3-.4-8.6-1.5-12.9-1.8-4.3-.3-8.9.2-12.5 2.7-1.6 1.1-3.1 2.7-4.7 3.7z" id="path423"/><path d="M707.7 288.6c-.6.4-1.3.7-1.9.8-1.4.2-2.2-2.9-3.1-3.4v12.4l4.9-5.1z" id="path425" style="fill:#0366d6"/><path class="st12" id="polygon427" d="m695.5 264.7 1.8 3.4h-1.5l-1.7-3.4z"/><path class="st12" id="polygon429" d="m698.7 264.7 1.8 3.4h-1.4l-1.8-3.4z"/></g><g id="g457"><path class="st14" id="rect433" d="M703.8 285.6h22.7v12.1h-22.7z"/><path class="st15" id="polygon435" d="M728.9 284.6v10.7l-2.7 2.4v-12.1z"/><path id="polygon437" style="fill:#ffebda" d="M708.8 284.6h20.1l-2.7 1h-22.4z"/><path class="st15" id="rect439" d="M710 284.9h13.5v.3H710z"/><path d="M711 284.9c1.9-5.3-3.6-12.3-6-12.6h15.3c4.6 3.2 2.3 12.6 2.3 12.6s-11.7.4-11.6 0z" id="path441" style="fill:#fff5b1"/><path class="st14" id="polygon443" d="m719.4 274.1.7.5h-9.5l-.7-.5z"/><path class="st14" id="polygon445" d="m720.2 276.1.4.7h-8.7l-.6-.7z"/><path class="st14" id="polygon447" d="m716.4 278.3.2.7h-3.7l-.3-.7z"/><path class="st14" id="polygon449" d="m716.3 280.7.1.8h-3.1v-.8z"/><path class="st14" id="polygon451" d="M717.6 282.8v.7h-4.4v-.7z"/><path class="st18" d="M728.8 289.2c-.3.4-.3 1.1-.5 1.6s-.8 1-1.3.7c-.2-.1-.3-.4-.4-.6-.1-.1-.2-.3-.3-.4v7.2l2.6-2.3-.1-6.2c0-.1 0 0 0 0z" id="path453"/><path class="st15" d="M726.5 290.8c-.6-.8-1.9-.8-2.8-.2-.9.6-1.5 1.5-2.2 2.3-1.7 2-4.3 3.2-7 3.2-2.6 0-5.2-1-7.8-.6-.5.1-1.8.5-2.8 1.1v1.1h22.7v-6.9z" id="path455"/></g><path class="st19" d="M804.6 254.3c12.7-5.3 20.7-20.9 22.4-31.2 1.5-9.1.7-15.5-.9-20.1.8-5.6-3.5-17.9-9.5-18.9-8.3 0-14.8 6.5-16.7 9.2" id="path459"/><path class="st19" d="M809.9 190.3c1.9-2.4 5-1.5 6.3-1 1.3.5 3.4 7.6.7 19" id="path461"/><path class="st19" d="M812.9 184c-7-8.3-25.2-9.7-33.9-8.4-8.6 1.4-28.1 8.9-31.6 22.7-3.5 13.8 1.1 28.4 3.8 32.9-4.9 4.9-1.6 13.8 3.2 18.9 4.9 5.1 22.5 10 30.6 9.9 7.1-.1 10.7-1.8 10.7-1.8" id="path463"/><path class="st19" d="M757.6 238.6c-.3 1.9 5.2 5.1 6.2 2.3s-5.2-5.1-6.2-2.3z" id="path465"/><path class="st19" d="M746.6 201.3c2.2 3.5 6.5 7.8 12.4 7.8s16.2-4.9 23.2-3.5c7 1.4 15.1 6.8 15.7 17.8.5 10.5-4.5 13.9-7.9 19.1-.3.5 1.1 1.7 1.4 2.2 3 5 1.3 6.1.2 9.1-1.1 3.2-8.1 6.8-13.5 5.4" id="path467"/><path class="st19" d="M806 244.2c5.7-3.5 17.6-2.2 19.7-.5" id="path469"/><path class="st19" d="M806 246.9c4.3-.3 10.3 4.1 12.4 7.6" id="path471"/><path class="st19" d="M749.9 233.1c-3.2-3.8-7.6-5.1-11.1-4.6" id="path473"/><path class="st19" d="M748.2 236.4c-3.5-1.9-4.6-2.4-7-1.9" id="path475"/><path class="st20" d="M749.9 233.1c-3.2-3.8-7.6-5.1-11.1-4.6" id="path477"/><path class="st20" d="M748.2 236.4c-3.5-1.9-4.6-2.4-7-1.9" id="path479"/><path class="st19" d="M798.4 262.9c4.3 4.5 7.8 12.9 9.3 18" id="path481"/><path class="st19" d="M811.7 281.5c-10.3 1.4-19.4-4.9-34.3-4.1-11.3.6-22.7 8.1-21.6 13.2-1.9-.8-5.4 0-4.3 2.7 1.1 2.7 14.9 2.7 28.6 2.7 13.7 0 40.2-2.4 42.6-6.2 2.4-3.8-4.9-18.7-9.2-25.1-4.7-7-13.9-16.7-17.7-12.7-2.7 2.7.7 5.6.4 8.3" id="path483"/><path class="st19" d="M799.2 263.6c1 4.8.9 6.8 1.7 16.5" id="path485"/><path class="st19" d="M788.7 264.9c0 4.8-2.2 12.3-2.2 12.3" id="path487"/><path class="st19" d="M783.2 260.4c-.5 5.2-8.9 15.6-11.8 18" id="path489"/><path class="st19" d="M777.1 259.1c-5.7 3.8-24 5.4-28.6-5.2-4.6-10.5-3.5-26.5-8.9-34.6-5.4-8.1-22-12-30.6-2.5-8.6 9.5-2.9 19.6-2.9 22.1 0 2.4-4.6 6.2-2.2 8.9 2.4 2.7 6-3.7 11.2-7.2 5.2-3.5 15.8-7.2 20.7-4" id="path491"/><path class="st19" d="M733.4 235.3c2.2 3.2 3 7 .3 8.1-2.7 1.1-6.2-4.9-6.5-7.8" id="path493"/><path class="st19" d="M735 251.2c2.6-1.7 10.5 11.6 7.7 15-2.7 3.4-12.9-11.6-7.7-15z" id="path495"/><path class="st19" d="M719.1 237.7c3 1.6 4.7 8.6 7.6 15.1 3.3 7.4 5.9 19.4 22.4 20.8 16.5 1.4 30.7-7 34-11.4" id="path497"/><path class="st19" d="M760.9 273.1c-3.2-2.4-14.3-5.7-11.9.5" id="path499"/><path class="st19" d="M769.9 177.8c-7.3-1.4-21.3.8-23.2 3.5-1.9 2.7 1.9 9.2 2.7 10.8" id="path501"/><path class="st19" d="M750.4 183.2c2.4 0 5.9 2.4 5.9 2.4" id="path503"/><path class="st20" d="M819.9 242.2c2.8.3 5 .9 5.8 1.5" id="path505"/><path class="st20" d="M814.9 250.6c1.5 1.2 2.8 2.6 3.6 3.9" id="path507"/><path class="st21" d="M620.4 215.2c-4.1-4.8-10.4-9.1-10.4-9.1l6.3-11.9s9.2 6 9.2 16.9" id="path509"/><ellipse transform="rotate(-10.517 621.792 210.319)" class="st15" cx="621.8" cy="210.3" rx="2.9" ry="2.7" id="ellipse511"/><path class="st21" d="M626.7 210.6c.8-5.4 1.3-16.1-.2-18.5l13.7-.8s-.5 11.3-6.2 19.9z" id="path513"/><ellipse transform="rotate(-72.518 631.5 207.859)" class="st15" cx="631.5" cy="207.9" rx="4.1" ry="2.3" id="ellipse515"/><path class="st19" d="M499.4 208.5c-1-.7-2-1.5-3.5-1s-7 8.7-3.7 19.2" id="path517"/><path class="st19" d="M562.1 207.6c-2-2.7-6-4.1-7.8-2.8-1.7 1.2-3.7 8.5-12 14-8.2 5.5-22.2 2.5-27.5 5-5.2 2.5-9 9-6.2 22.2s11.5 13.5 12.7 16c1.2 2.5-1.5 6.2-1 9 .5 2.7 5.7 8 11.2 7.7" id="path519"/><path class="st19" d="M554.7 250.5c1.3 1.4 7.4-1.5 6.5-3.9-.9-2.4-7.9 1-6.5 3.9z" id="path521"/><path class="st19" d="M571.3 237c1.2-4.5 4-8.5 7.2-9.2" id="path523"/><path class="st19" d="M573.5 240.8c2.2-3.2 7.2-3.5 8.5-3.2" id="path525"/><path class="st20" d="M571.2 236.8c1.2-4.5 4.1-8.2 7.3-9" id="path527"/><path class="st20" d="M573.5 240.8c2.2-3.2 7.2-3.5 8.5-3.2" id="path529"/><path class="st19" d="M539.3 192.8c3.2-3 14.5-7.7 18.5-5.5s3.7 14.7 2.2 18.7" id="path531"/><path class="st19" d="M550.8 198.5c1-4.2 3.7-7.5 5-7.7" id="path533"/><path class="st20" d="M503.3 266.8c-4 .7-7.1 2.3-8.7 3.5" id="path535"/><path class="st20" d="M506.2 271.4c-2.3 1.2-4.4 3.2-5.3 5.4" id="path537"/><path class="st19" d="M612.4 247.3c-6.3 6-33.3 16.3-50 19.3" id="path539"/><path class="st19" d="M631.3 246.8c-6.7.2-18-.7-20-15.5-2-14.7 12-20 18-20.5s15-1 18.2 13c3.2 14-.1 23.1-6.5 30.1-7.1 7.9-32.5 20.8-82.6 19.7" id="path541"/><path class="st19" d="M612 234.8c-2.7 2.7-3.7 8.5-1.5 11.2 1.5 2 6 2.7 10.2-.2" id="path543"/><path class="st19" d="M627.4 246.8c-4 4.2-18.4 14-21.6 9.9-1.7-2.2 11.3-7.7 11.7-9.3" id="path545"/><path class="st19" d="M598.4 260.8c1.5 2.4-6 5.9-10.5 7.1-4.7 1.2-14.2 2-14.3.3-.2-1.5 7.5-3.3 12.9-4.9 4.7-1.5 10.7-4.3 11.9-2.5z" id="path547"/><path class="st19" d="M555.8 271.5c3.7 4.5 18.7 8.7 27.7 10 9 1.2 13.2 11.1 11.2 15.7-.7 1.7-4 2.7-6 6-2 3.2-4.7 9.2-6.2 17.2s0 22.5-5.2 22-4.7-2.5-5-4.5" id="path549"/><path class="st19" d="M580.5 291.5c-6 1.2-23.2 10.5-21.5 26.7 1.7 16.2 11.5 19.7 16 19.7" id="path551"/><path class="st19" d="M572 295c-4.5-1.5-14.6-9.6-16.6-15.1" id="path553"/><path class="st19" d="M553.1 276.6c3.7 4.2 9.5 17.2 9 27.9" id="path555"/><path class="st19" d="M567.1 334.5c0 6.7-.7 12-1.7 15" id="path557"/><path class="st19" d="M558.6 347.7c4.2.7 21.5 5.5 22.5 18" id="path559"/><path class="st19" d="M531.2 278.6c-5.7 3-19.4 9.3-25.7 16.3-5.7 6.3-7.8 13-3.2 20.5" id="path561"/><path class="st19" d="M530.4 290.2c2.7-4.7 5.6-8.4 9.3-10.7" id="path563"/><path class="st19" d="M545.4 321.5c-1.3 6.7-2.7 14.8-5.3 22.3-5.7 16.3-5.2 24.8-4 28.3 1.2 3.5 13.8 4.9 22.3 5.7 8 .7 18.4.1 23.6-3.4 5.2-3.5 6.7-7.2 4-8.7-5.7-3.2-9.1 9.6-16.6 11.8" id="path565"/><path class="st19" d="M546.1 278.9c2 5 2.2 14.1 2 21" id="path567"/><path class="st19" d="M545.2 322.5c-2.7 7.7-8.4 19-14.1 28.3-5.8 9.6-14.4 22.4-17.3 23.7-9 3.7-25.9 6-34.3 5.3-4.8-.4-5.2-5.1-1.7-6.3 3.5-1.2 7.8 5.9 14.3 5.7" id="path569"/><path class="st19" d="M481.5 373.8c0-5.7 3-16.4 9-21 4.3-3.3 14.4-6.2 19.1-4.7" id="path573"/><path class="st19" d="M509.6 340.4c-1.7 3.5-5 7-5 7" id="path575"/><path class="st21" d="M496.1 317.7c1.5-4.5 19.5-2.5 22-2.5s10 .5 12.5 2-2.5 27-2.5 27-10 1-12.5.5-21-3-22.5-6 3-21 3-21z" id="path577"/><path class="st15" d="M522.1 315.5c-6.5 1.7-12.7 15.7-18.5 15.2-3.5-.3-7-11.5-7.5-13s0-4 3.7-3.5c3.8.5 22.3 1.3 22.3 1.3z" id="path579"/><path d="M492.8 336.5c6 6 21 5.8 25 4.3s3.8-23.7 3.8-25.1c0 0 7 0 9 1.5s-.5 24-2.5 27-7.5.5-12.5.5-22-3.5-22.5-6-.3-2.2-.3-2.2z" id="path581" style="fill:#f9c513"/><path class="st15" d="M529.6 321.7c19.5-19 24.5-49.8 24.5-49.8l-3.5 1.2c-5.5 18.5-23 38.1-28 44.6l7 4" id="path585"/><path class="st18" d="M522.6 317.7s-1.2 9 1.3 10 5.7-6 5.7-6z" id="path587"/><path class="st19" d="M516.6 295c7-4.2 18-7.7 24.7-2.7 6.7 5 11.8 16.7 7.4 25-2.7 5-6.7 7-9.3 7" id="path589"/><path class="st19" d="M522.4 315.2c6.7-2.7 8.4 4.2 10.3 10.7 1.7 5.7 9.7 3 9.3-1.7" id="path591"/><circle class="st15" cx="525" cy="325" r="1.1" id="circle593"/><ellipse transform="rotate(-80.613 503.87 327.977)" class="st18" cx="503.9" cy="328" rx="1.6" ry="1.1" id="ellipse595"/><path class="st19" d="M497.8 204c8.3-8.7 21.2-14.1 38-12.3 8.7.9 18.9 8 24.6 14 8 8.3 8.9 29.4 8.9 29.4s2.4 1.8 4.2 5.7c1.7 3.7 5.1 10.9-5.2 20.8-7.7 7.5-22.6 18-42.3 17.3-19.7-.7-28.8-7.8-35.6-19.7-6.7-11.6-7.3-25.6-5.8-34.3-.7-6.8 2.5-18.2 6.3-22.2.4-.4 1.4-.6 2-.6 4.9.4 12.5 3.4 16.2 8.7" id="path597"/><path class="st19" d="M510.6 266.7c-7.2-1.2-13.5 1.7-16 3.5" id="path599"/><path class="st19" d="M511.1 270c-3.7 0-8.7 3-10.2 6.7" id="path601"/><path class="st19" d="M538.1 280.9c.3 3-.7 9.3-.7 9.3" id="path603"/></g></svg>